<?xml version="1.0" standalone="no"?>
<!DOCTYPE svg PUBLIC "-//W3C//DTD SVG 1.1//EN" "http://www.w3.org/Graphics/SVG/1.1/DTD/svg11.dtd" >
<svg xmlns="http://www.w3.org/2000/svg" xmlns:xlink="http://www.w3.org/1999/xlink" version="1.1">
<metadata>
Created by FontForge 20200427 at Wed Sep 22 23:25:31 1993
 By www
Data by URW. (c) 1993. Microsoft Corporation. All rights reserved.
</metadata>
<defs>
<font id="OCRB" horiz-adv-x="1233" >
  <font-face 
    font-family="OCRB"
    font-weight="400"
    font-stretch="extra-expanded"
    units-per-em="2048"
    panose-1="2 11 6 9 2 2 2 2 2 4"
    ascent="1638"
    descent="-410"
    x-height="971"
    cap-height="1315"
    bbox="-39 -337 1273 1457"
    underline-thickness="173"
    underline-position="-216"
    unicode-range="U+0020-F002"
  />
<missing-glyph 
d="M123 0v1315h987v-1315h-987zM987 123v1069h-741v-1069h741z" />
    <glyph glyph-name=".notdef" 
d="M123 0v1315h987v-1315h-987zM987 123v1069h-741v-1069h741z" />
    <glyph glyph-name=".null" horiz-adv-x="0" 
 />
    <glyph glyph-name="nonmarkingreturn" 
 />
    <glyph glyph-name="space" unicode=" " 
 />
    <glyph glyph-name="space" unicode="&#xa0;" 
 />
    <glyph glyph-name="exclam" unicode="!" 
d="M384 1414h270l-40 -884h-195zM384 227h270v-227h-270v227z" />
    <glyph glyph-name="quotedbl" unicode="&#x22;" 
d="M308 1403h221l-33 -434h-168zM703 1403h220l-32 -434h-168z" />
    <glyph glyph-name="numbersign" unicode="#" 
d="M540 1007h282l91 413h156l-90 -413h90l-38 -128h-80l-79 -352h158l-37 -132h-146l-86 -395h-155l85 395h-280l-91 -395h-155l93 395h-93l35 132h87l78 352h-164l39 128h152l91 413h148zM437 527h281l77 352h-283z" />
    <glyph glyph-name="dollar" unicode="$" 
d="M553 1323v91h154v-99q141 -13 227 -71q132 -90 132 -205q0 -9 -3 -31h-192q0 78 -33.5 105t-130.5 27v-342q212 -68 304 -149t92 -198q0 -145 -103.5 -237t-292.5 -116v-98h-154v99l-43 -1q-140 0 -250 84.5t-110 192.5q0 10 3 35h192q4 -70 47 -102t131 -32l30 1v383
q-208 59 -303.5 141.5t-95.5 202.5q0 81 43.5 152t116.5 109q87 45 239 58zM553 1140q-205 0 -205 -134q0 -60 34.5 -92t136.5 -65q11 -4 34 -11v302zM707 276q109 14 155.5 49.5t46.5 104.5q0 62 -43.5 100t-158.5 76v-330z" />
    <glyph glyph-name="percent" unicode="%" 
d="M401 1380q90 0 150 -64.5t60 -160.5q0 -104 -60.5 -168t-158.5 -64q-92 0 -152 64.5t-60 162.5q0 102 61.5 166t159.5 64zM476 1113v81q0 76 -82 76q-81 0 -81 -76v-72q0 -89 82 -89q81 0 81 80zM952 1388h93v-111l-751 -1277h-104v103zM844 461q91 0 150.5 -65
t59.5 -165q0 -99 -62 -163t-157 -64q-92 0 -152 64.5t-60 163.5q0 100 62 164.5t159 64.5zM919 198v76q0 78 -84 78q-79 0 -79 -78v-76q0 -37 22.5 -61t56.5 -24q84 0 84 85z" />
    <glyph glyph-name="ampersand" unicode="&#x26;" 
d="M591 706l272 -370q41 141 41 264l-1 36h193l1 -29q0 -106 -35.5 -225t-88.5 -191l139 -191h-237l-43 57q-117 -69 -268 -69q-218 0 -330 127q-95 107 -95 245q0 223 214 377q-166 223 -166 370q0 136 113 227t282 91q156 0 261 -84t105 -208q0 -99 -69.5 -184.5
t-263.5 -225.5q-8 -5 -24 -17zM495 834q25 20 38 29q135 103 175 147t40 88q0 70 -47.5 109.5t-131.5 39.5t-135.5 -51t-51.5 -133q0 -83 113 -229zM451 592q-116 -98 -116 -209q0 -93 72 -155.5t178 -62.5q81 0 148 33z" />
    <glyph glyph-name="quotesingle" unicode="'" 
d="M506 1403h221l-33 -434h-168z" />
    <glyph glyph-name="parenleft" unicode="(" 
d="M963 118v-131h-150q-189 119 -298 306.5t-109 392.5q0 266 162 491q122 169 248 242h147v-136q-59 -18 -139 -89q-222 -198 -222 -503q0 -154 75 -293q42 -76 96.5 -131.5t160.5 -128.5z" />
    <glyph glyph-name="parenright" unicode=")" 
d="M269 118l29 20q183 125 257 260q75 140 75 293q0 305 -222 503q-80 72 -139 89v136h147q126 -73 248 -242q162 -225 162 -491q0 -205 -109 -392.5t-298 -306.5h-150v131z" />
    <glyph glyph-name="asterisk" unicode="*" 
d="M686 1035l323 136l83 -201l-345 -96l237 -280l-172 -112l-193 303l-204 -303l-155 112l222 280l-340 106l78 191l316 -136l-17 368h194z" />
    <glyph glyph-name="plus" unicode="+" 
d="M714 1224v-420h343v-176h-343v-420h-195v420h-343v176h343v420h195z" />
    <glyph glyph-name="comma" unicode="," 
d="M589 355h353v-144l-529 -531h-221z" />
    <glyph glyph-name="hyphen" unicode="-" 
d="M392 607h450v-223h-450v223z" />
    <glyph glyph-name="hyphen" unicode="&#xad;" 
d="M392 607h450v-223h-450v223z" />
    <glyph glyph-name="period" unicode="." 
d="M384 299h367v-299h-367v299z" />
    <glyph glyph-name="slash" unicode="/" 
d="M820 1426h199l-589 -1442h-194z" />
    <glyph glyph-name="zero" unicode="0" 
d="M637 1430q154 0 237.5 -36t123.5 -121q90 -186 90 -568q0 -479 -124 -617q-94 -104 -365 -104q-281 0 -356 139q-98 182 -98 592q0 411 98 580q41 71 134.5 103t259.5 32zM633 1250q-108 0 -158.5 -11.5t-73.5 -41.5q-27 -35 -47 -177.5t-20 -303.5q0 -134 15.5 -276
t35.5 -193q19 -49 66.5 -69t145.5 -20q113 0 168.5 15t74.5 50q60 114 60 445q0 195 -20 344.5t-53 190.5q-21 27 -62 37t-132 10z" />
    <glyph glyph-name="one" unicode="1" 
d="M598 1196l-361 -312v242l343 288h213v-1414h-195v1196z" />
    <glyph glyph-name="two" unicode="2" 
d="M371 181h642v-181h-831q-8 77 -8 113q0 190 57 307q45 92 118.5 163.5t221.5 164.5q157 100 211.5 161t54.5 136q0 87 -67 152.5t-157 65.5q-200 0 -413 -148v210q166 117 386 117q203 0 324.5 -106t121.5 -282q0 -127 -63 -222q-39 -60 -91.5 -102.5t-224.5 -153.5
q-150 -98 -216 -184t-66 -184v-27z" />
    <glyph glyph-name="three" unicode="3" 
d="M768 1239h-606v175h854v-194l-362 -361q205 -17 313 -124.5t108 -292.5q0 -205 -148.5 -331.5t-390.5 -126.5q-176 0 -374 84v193q162 -100 354 -100q171 0 267.5 78.5t96.5 217.5q0 110 -87 182t-221 72h-172v149z" />
    <glyph glyph-name="four" unicode="4" 
d="M896 488h176v-181h-176v-307h-195v307h-538v212l416 895h201l-429 -926h350v295h195v-295z" />
    <glyph glyph-name="five" unicode="5" 
d="M438 1237l-24 -283l51 1q260 0 405 -119t145 -332q0 -311 -304 -444q-167 -73 -489 -73v172h21l100 -1q88 0 166 15q147 30 229 117.5t82 215.5q0 272 -351 272q-84 0 -149 -7l-71 -8q-5 -1 -27 -3l43 654h712v-177h-539z" />
    <glyph glyph-name="six" unicode="6" 
d="M698 1414h255l-23 -22q-250 -239 -350 -373l-85 -116q-5 -6 -28 -36q102 42 181 42q188 0 316.5 -131t128.5 -322q0 -213 -130 -342.5t-345 -129.5q-226 0 -351 126.5t-125 356.5q0 142 50 270t168 291q139 191 338 386zM620 730q-124 0 -204.5 -78t-80.5 -199
q0 -128 79 -209t203 -81t203.5 81t79.5 208q0 119 -80 198.5t-200 79.5z" />
    <glyph glyph-name="seven" unicode="7" 
d="M857 1239h-696v175h930v-56q0 -103 -36 -178.5t-148 -206.5q-204 -239 -276 -390t-72 -338v-245h-195v245q0 181 86 378.5t242 376.5l100 114q54 62 65 125z" />
    <glyph glyph-name="eight" unicode="8" 
d="M788 787l41 -25q147 -91 204.5 -175.5t57.5 -210.5q0 -188 -125 -290t-354 -102q-224 0 -347.5 102t-123.5 287q0 278 300 414q-145 97 -195 167t-50 175q0 134 115 217.5t299 83.5q192 0 306 -84t114 -225q0 -94 -48.5 -165t-166.5 -151zM614 882q104 44 164 103t60 116
q0 72 -61 115t-162 43q-105 0 -166 -41.5t-61 -113.5q0 -132 226 -222zM616 690l-40 -22q-137 -71 -190 -132.5t-53 -148.5q0 -104 79 -166.5t211 -62.5q125 0 200 61t75 162q0 91 -75 173t-207 136z" />
    <glyph glyph-name="nine" unicode="9" 
d="M536 0h-259q330 308 484 550q-95 -41 -183 -41q-186 0 -313 130.5t-127 320.5q0 211 132 340.5t346 129.5q217 0 347 -131.5t130 -351.5q0 -201 -118.5 -406.5t-409.5 -509.5zM617 1255q-127 0 -207.5 -80t-80.5 -208q0 -123 81 -201t209 -78q123 0 202 79.5t79 204.5
q0 109 -72 194q-76 89 -211 89z" />
    <glyph glyph-name="colon" unicode=":" 
d="M384 977h367v-294h-367v294zM384 299h367v-299h-367v299z" />
    <glyph glyph-name="semicolon" unicode=";" 
d="M560 978h352v-291h-352v291zM518 317h394l-461 -625h-230z" />
    <glyph glyph-name="less" unicode="&#x3c;" 
d="M1107 1370v-225l-664 -436l655 -434v-226l-936 628v66z" />
    <glyph glyph-name="equal" unicode="=" 
d="M1052 1016v-176h-872v176h872zM1052 591v-176h-872v176h872z" />
    <glyph glyph-name="greater" unicode="&#x3e;" 
d="M162 1370l945 -627v-66l-936 -628v226l655 434l-664 436v225z" />
    <glyph glyph-name="question" unicode="?" 
d="M765 468h-193v88q0 55 24 92t119 126q60 57 80.5 97.5t20.5 100.5q0 78 -48.5 128t-123.5 50q-192 0 -192 -224l-1 -24h-196v34l21 173q28 94 130 154t234 60q165 0 267 -91t102 -238q0 -180 -136 -308q-82 -77 -95 -95t-13 -55v-68zM531 247h274v-247h-274v247z" />
    <glyph glyph-name="at" unicode="@" 
d="M739 761v-502q0 -126 76 -126q95 0 95 231v167l-6 236q-11 222 -84.5 317t-233.5 95q-136 0 -194.5 -53t-66.5 -183h-171q0 181 113 282t315 101q286 0 403 -211q87 -158 87 -580q0 -324 -33 -405q-61 -146 -222 -146q-120 0 -177 105q-65 -105 -191 -105
q-149 0 -218.5 93.5t-69.5 293.5q0 205 62 301t194 96q95 0 160 -59v52h162zM438 622q-115 0 -115 -242q0 -247 134 -247q124 0 124 211q0 132 -37.5 205t-105.5 73z" />
    <glyph glyph-name="A" unicode="A" 
d="M797 380h-373l-96 -380h-198l359 1315h277l336 -1315h-214zM755 556l-137 589l-150 -589h287z" />
    <glyph glyph-name="B" unicode="B" 
d="M167 0v1315h442q132 0 209.5 -21.5t134.5 -74.5q123 -113 123 -268q0 -192 -174 -260q94 -25 151.5 -104.5t57.5 -184.5q0 -163 -113 -285q-109 -117 -316 -117h-515zM359 775h290q133 0 182 51q52 53 52 120q0 89 -70 141t-191 52h-263v-364zM359 176h295
q125 0 194.5 58t69.5 163q0 93 -69 158q-63 60 -204 60h-286v-439z" />
    <glyph glyph-name="C" unicode="C" 
d="M1021 1022h-186q-11 60 -56.5 96.5t-111.5 36.5q-114 0 -183 -134.5t-69 -355.5q0 -232 68 -368.5t184 -136.5q65 0 112 40.5t56 104.5h196v-15q0 -124 -105.5 -215t-248.5 -91q-208 0 -331.5 180t-123.5 480q0 324 122.5 505.5t340.5 181.5q146 0 241 -87.5t95 -221.5z
" />
    <glyph glyph-name="D" unicode="D" 
d="M243 0v1315h140q269 0 454 -178q101 -98 158 -232t57 -274q0 -277 -193 -467q-167 -164 -451 -164h-165zM435 177q191 0 307.5 125.5t116.5 331.5q0 202 -127 353t-297 151v-961z" />
    <glyph glyph-name="E" unicode="E" 
d="M435 1139v-366h520v-176h-520v-421h619v-176h-811v1315h789v-176h-597z" />
    <glyph glyph-name="F" unicode="F" 
d="M534 1139v-364h397v-176h-397v-599h-192v1315h687v-176h-495z" />
    <glyph glyph-name="G" unicode="G" 
d="M857 525h-275v176h467v-640q-196 -77 -376 -77q-248 0 -379.5 174.5t-131.5 501.5q0 209 44.5 336.5t147.5 217.5q136 117 339 117q158 0 251 -80q46 -39 76 -90.5t30 -90.5q0 -3 -1 -14h-192q-31 99 -155 99q-177 0 -262 -120t-85 -369q0 -506 336 -506q77 0 166 33v332
z" />
    <glyph glyph-name="H" unicode="H" 
d="M843 593h-454v-593h-192v1315h192v-546h454v546h192v-1315h-192v593z" />
    <glyph glyph-name="I" unicode="I" 
d="M711 1139v-963h241v-176h-671v176h238v963h-199v176h590v-176h-199z" />
    <glyph glyph-name="J" unicode="J" 
d="M701 1315h192v-974q0 -170 -87.5 -263.5t-245.5 -93.5q-167 0 -253 95t-86 281v65h195v-84q0 -65 7.5 -92.5t30.5 -50.5q40 -38 104 -38q69 0 106 37q23 23 30 57t7 123v938z" />
    <glyph glyph-name="K" unicode="K" 
d="M374 772l538 543h253l-634 -627l674 -688h-269l-562 597v-597h-192v1315h192v-543z" />
    <glyph glyph-name="L" unicode="L" 
d="M434 176h680v-176h-872v1315h192v-1139z" />
    <glyph glyph-name="M" unicode="M" 
d="M617 802l154 513h307v-1315h-192v1118l-187 -688h-161l-191 688v-1118h-192v1315h304z" />
    <glyph glyph-name="N" unicode="N" 
d="M877 349v966h176v-1315h-213l-484 1009v-1009h-176v1315h231z" />
    <glyph glyph-name="O" unicode="O" 
d="M619 1331q197 0 330.5 -193t133.5 -477q0 -301 -130 -489t-337 -188q-202 0 -333 187t-131 476q0 294 133 489t334 195zM619 1155q-127 0 -192 -113q-82 -142 -82 -393q0 -231 71.5 -360t200.5 -129q128 0 200.5 132.5t72.5 369.5q0 225 -73.5 359t-197.5 134z" />
    <glyph glyph-name="P" unicode="P" 
d="M414 545v-545h-192v1315h466q116 0 184.5 -24t132.5 -87q109 -108 109 -279q0 -169 -123 -280q-112 -100 -318 -100h-259zM414 721h264q115 0 179 54.5t64 151.5q0 212 -241 212h-266v-418z" />
    <glyph glyph-name="Q" unicode="Q" 
d="M932 293l227 -293h-235l-117 150q-98 -79 -232 -79q-145 0 -262 104q-96 85 -139.5 211.5t-43.5 320.5q0 286 119.5 455t321.5 169q153 0 269 -107q182 -167 182 -528q0 -259 -90 -403zM802 468q27 90 27 223q0 219 -66 341.5t-183 122.5q-122 0 -182 -100
q-75 -125 -75 -340q0 -219 67 -343.5t185 -124.5q75 0 123 46l-267 350h232z" />
    <glyph glyph-name="R" unicode="R" 
d="M416 548v-548h-192v1315h401q187 0 297 -103t110 -278q0 -138 -70.5 -228.5t-196.5 -116.5l346 -589h-224l-304 548h-167zM416 726h176q247 0 247 204q0 209 -249 209h-174v-413z" />
    <glyph glyph-name="S" unicode="S" 
d="M1020 989h-194q0 80 -51.5 123t-146.5 43q-89 0 -146 -48t-57 -123q0 -102 139 -169l155 -74q169 -81 241.5 -171t72.5 -219q0 -159 -118.5 -263t-299.5 -104q-174 0 -294.5 98t-120.5 240q0 11 2 38h189q6 -92 66 -146t156 -54t161.5 55t65.5 136q0 77 -64.5 135.5
t-229.5 131.5q-175 77 -244.5 155.5t-69.5 197.5q0 158 115 259t295 101q153 0 265.5 -93t112.5 -220v-29z" />
    <glyph glyph-name="T" unicode="T" 
d="M711 1139v-1139h-192v1139h-356v176h909v-176h-361z" />
    <glyph glyph-name="U" unicode="U" 
d="M172 1315h192v-877q0 -145 61.5 -211.5t194.5 -66.5q126 0 198 80q33 37 42 74.5t9 134.5v866h192v-866q0 -131 -20 -203t-73 -132q-115 -130 -358 -130q-210 0 -332 123q-58 59 -82 130.5t-24 186.5v891z" />
    <glyph glyph-name="V" unicode="V" 
d="M619 186l298 1129h195l-359 -1315h-277l-355 1315h197z" />
    <glyph glyph-name="W" unicode="W" 
d="M620 468l-121 -468h-213q-60 247 -101.5 594.5t-41.5 594.5v126h196l-1 -77q0 -511 66 -908l140 479h151l143 -488l8 60q54 451 54 833l-2 101h194v-136q0 -292 -37.5 -615.5t-99.5 -563.5h-214z" />
    <glyph glyph-name="X" unicode="X" 
d="M617 854l268 461h194l-354 -621l377 -694h-217l-268 505l-270 -505h-215l370 668l-370 647h229z" />
    <glyph glyph-name="Y" unicode="Y" 
d="M613 814l264 501h214l-381 -699v-616h-192v616l-375 699h215z" />
    <glyph glyph-name="Z" unicode="Z" 
d="M446 176h567v-176h-793v136l518 1003h-501v176h713v-149z" />
    <glyph glyph-name="bracketleft" unicode="[" 
d="M510 1254v-1076h513v-178h-712v1431h712v-177h-513z" />
    <glyph glyph-name="backslash" unicode="\" 
d="M419 1446l598 -1463h-207l-602 1463h211z" />
    <glyph glyph-name="bracketright" unicode="]" 
d="M723 1254h-513v177h712v-1431h-712v178h513v1076z" />
    <glyph glyph-name="asciicircum" unicode="^" 
d="M657 1429l435 -643l-124 -96l-353 371l-350 -371l-123 96l425 643h90z" />
    <glyph glyph-name="underscore" unicode="_" 
d="M-39 -316v173h1312v-173h-1312z" />
    <glyph glyph-name="grave" unicode="`" 
d="M291 1420h249l176 -312h-187z" />
    <glyph glyph-name="a" unicode="a" 
d="M803 609v83q0 152 -186 152q-176 0 -215 -113h-192q13 257 408 257q196 0 281 -84t85 -277v-627h-181v97q-122 -114 -287 -114q-159 0 -254.5 81t-95.5 215q0 151 116.5 240.5t313.5 89.5h207zM803 462h-235q-98 0 -157.5 -47t-59.5 -124q0 -71 47.5 -117.5t121.5 -46.5
q119 0 201 78t82 192v65z" />
    <glyph glyph-name="b" unicode="b" 
d="M367 1415v-555q108 128 299 128t305 -140t114 -375q0 -218 -121 -354.5t-314 -136.5q-166 0 -283 121v-103h-181v1415h181zM644 829q-129 0 -203 -91t-74 -250q0 -163 71.5 -254.5t199.5 -91.5q120 0 190.5 92.5t70.5 250.5q0 157 -69.5 250.5t-185.5 93.5z" />
    <glyph glyph-name="c" unicode="c" 
d="M1032 713h-196q-42 116 -165 116q-247 0 -247 -343q0 -166 61.5 -255t175.5 -89q68 0 118 43t57 107h196q-6 -135 -110 -222t-259 -87q-186 0 -289 110q-62 65 -98.5 172.5t-36.5 221.5q0 224 119 362.5t311 138.5q151 0 246.5 -72.5t116.5 -202.5z" />
    <glyph glyph-name="d" unicode="d" 
d="M1046 1415v-1415h-181v106q-122 -123 -284 -123q-196 0 -314.5 136t-118.5 360q0 233 113.5 371t305.5 138q190 0 298 -123v550h181zM587 829q-115 0 -184 -91t-69 -242q0 -162 72.5 -258t194.5 -96q120 0 192.5 97t72.5 256q0 156 -74.5 245t-204.5 89z" />
    <glyph glyph-name="e" unicode="e" 
d="M1050 446h-672l-1 -34q0 -119 81 -194.5t207 -75.5q107 0 151 68h199q-10 -110 -104 -168.5t-260 -58.5q-223 0 -346.5 132.5t-123.5 371.5q0 201 106 346q113 153 341 153q209 0 317 -123t108 -361q0 -16 -3 -56zM858 604q0 100 -63.5 161.5t-167.5 61.5
q-103 0 -171 -60.5t-79 -162.5h481z" />
    <glyph glyph-name="f" unicode="f" 
d="M692 971h287v-158h-287v-813h-181v813h-282v158h282v83q0 172 89.5 266.5t253.5 94.5h128v-160h-100q-190 0 -190 -189v-95z" />
    <glyph glyph-name="g" unicode="g" 
d="M1026 971v-958q0 -175 -110 -259t-338 -84q-364 0 -364 220l1 18h188q7 -96 169 -96q182 0 241 64q32 35 32 122v170l-24 -19q-107 -87 -251 -87q-187 0 -294.5 126.5t-107.5 347.5q0 207 107.5 329.5t289.5 122.5q183 0 280 -116v99h181zM593 841q-114 0 -177 -80.5
t-63 -225.5q0 -330 250 -330q114 0 179.5 87.5t65.5 240.5q0 145 -67.5 226.5t-187.5 81.5z" />
    <glyph glyph-name="h" unicode="h" 
d="M417 1415v-526q116 99 279 99q136 0 225 -89q54 -55 74 -117.5t20 -174.5v-607h-181v628q0 193 -178 193q-104 0 -173 -65q-39 -37 -52.5 -80t-13.5 -129v-547h-181v1415h181z" />
    <glyph glyph-name="i" unicode="i" 
d="M282 971h504v-971h-192v788h-312v183zM512 1415h274v-243h-274v243z" />
    <glyph glyph-name="j" unicode="j" 
d="M420 971h417v-942q0 -113 -18 -170t-69 -106q-95 -90 -294 -90h-165v158h160q102 0 153 53q32 33 42 65t10 99v752h-236v181zM582 1415h255v-245h-255v245z" />
    <glyph glyph-name="k" unicode="k" 
d="M457 1415v-795l375 351h257l-464 -420l508 -551h-254l-422 460v-460h-181v1415h181z" />
    <glyph glyph-name="l" unicode="l" 
d="M573 1415v-1061q0 -196 213 -196h154v-158h-207q-179 0 -260 96t-81 307v1012h181z" />
    <glyph glyph-name="m" unicode="m" 
d="M139 971h181v-74q95 91 209 91q60 0 92.5 -15.5t67.5 -61.5q79 77 205 77q101 0 161 -69t60 -183v-736h-181v736q0 111 -93 111q-124 0 -124 -193v-654h-181v741q0 106 -93 106q-123 0 -123 -188v-659h-181v971z" />
    <glyph glyph-name="n" unicode="n" 
d="M186 971h181v-111q127 128 317 128q165 0 263.5 -97t98.5 -259v-632h-181v646q0 86 -53 134.5t-149 48.5q-133 0 -214.5 -83t-81.5 -218v-528h-181v971z" />
    <glyph glyph-name="o" unicode="o" 
d="M614 988q233 0 354 -140q55 -65 89.5 -164t34.5 -196q0 -220 -134 -362.5t-341 -142.5q-214 0 -344.5 139t-130.5 367q0 225 129.5 362t342.5 137zM625 847q-138 0 -218 -97t-80 -262q0 -168 78 -266t212 -98q133 0 211.5 96t78.5 259q0 173 -74.5 270.5t-207.5 97.5z
" />
    <glyph glyph-name="p" unicode="p" 
d="M186 971h181v-93q129 110 278 110q192 0 316.5 -139.5t124.5 -354.5q0 -230 -120.5 -370.5t-317.5 -140.5q-83 0 -160.5 31.5t-120.5 81.5v-418h-181v1293zM634 829q-128 0 -200 -91t-72 -254q0 -160 71.5 -251t197.5 -91q127 0 198.5 89t71.5 246q0 352 -267 352z" />
    <glyph glyph-name="q" unicode="q" 
d="M1051 971v-1293h-181v422q-115 -117 -286 -117q-196 0 -316 137.5t-120 360.5q0 117 44.5 232t111.5 174q116 101 278 101q156 0 288 -116v99h181zM603 829q-127 0 -198.5 -89.5t-71.5 -248.5q0 -349 264 -349q132 0 202.5 91.5t70.5 263.5q0 154 -71.5 243t-195.5 89z
" />
    <glyph glyph-name="r" unicode="r" 
d="M299 971h181v-111q108 128 264 128q129 0 210.5 -81.5t81.5 -210.5q0 -10 -2 -36h-189q1 17 1 26q0 69 -36.5 112.5t-94.5 43.5q-107 0 -181 -99q-54 -72 -54 -220v-523h-181v971z" />
    <glyph glyph-name="s" unicode="s" 
d="M985 727h-189q-11 113 -176 113q-195 0 -195 -121q0 -102 136 -128q266 -52 338 -93q131 -76 131 -227q0 -137 -115 -212.5t-325 -75.5q-184 0 -285 69.5t-101 197.5h190q10 -71 59.5 -100.5t158.5 -29.5q103 0 167.5 39t64.5 101t-35 90t-137 47q-249 47 -341 113
t-92 198q0 280 415 280q159 0 246 -60.5t87 -170.5q0 -9 -2 -30z" />
    <glyph glyph-name="t" unicode="t" 
d="M612 1262v-280h365v-158h-365v-508q0 -83 37 -128.5t105 -45.5q50 0 114.5 22.5t108.5 54.5v-179q-87 -57 -227 -57q-156 0 -237.5 89.5t-81.5 261.5v490h-201v158h201v229z" />
    <glyph glyph-name="u" unicode="u" 
d="M1043 971v-971h-181v112q-131 -129 -341 -129q-152 0 -243.5 90.5t-91.5 242.5v655h181v-655q0 -174 193 -174q135 0 223 88q79 79 79 228v513h181z" />
    <glyph glyph-name="v" unicode="v" 
d="M327 971l290 -840l307 840h187l-360 -971h-276l-354 971h206z" />
    <glyph glyph-name="w" unicode="w" 
d="M332 971l76 -733l112 355h195l112 -376l79 754h185l-118 -971h-236l-121 406l-119 -406h-232l-124 971h191z" />
    <glyph glyph-name="x" unicode="x" 
d="M397 971l222 -349l219 349h215l-334 -480l371 -491h-234l-252 374l-247 -374h-214l356 491l-356 480h254z" />
    <glyph glyph-name="y" unicode="y" 
d="M638 411l313 560h190l-605 -1111q-103 -190 -279 -190h-75v161h73q56 0 82 46l18 31l186 328l-429 735h230z" />
    <glyph glyph-name="z" unicode="z" 
d="M969 971v-178l-546 -635h588v-158h-789v188l541 625h-504v158h710z" />
    <glyph glyph-name="braceleft" unicode="{" 
d="M1049 1441v-178h-85q-194 0 -252 -40t-58 -176q0 -171 -25.5 -239t-102.5 -100q77 -35 105.5 -95.5t28.5 -187.5q0 -169 54.5 -216.5t249.5 -47.5h95v-177l-64 -1q-182 0 -269 18t-145 67q-113 95 -113 334q0 140 -44 179.5t-201 39.5h-49v176h39q172 0 211 37t39 198
q0 152 42.5 238t138.5 129q94 42 343 42h62z" />
    <glyph glyph-name="bar" unicode="|" 
d="M521 125v1065h192v-1065h-192z" />
    <glyph glyph-name="braceright" unicode="}" 
d="M183 1441h62q249 0 343 -42q96 -43 139 -129t43 -238q0 -161 39 -198t211 -37h39v-176h-49q-158 0 -201.5 -39t-43.5 -180q0 -239 -113 -334q-59 -49 -146 -67t-269 -18l-63 1v177h94q196 0 250.5 47t54.5 217q0 127 28.5 188t105.5 95q-77 32 -103 100t-26 239
q0 136 -57.5 176t-252.5 40h-85v178z" />
    <glyph glyph-name="asciitilde" unicode="~" 
d="M246 1113l-103 71q109 236 276 236q70 0 218 -71q132 -63 186 -63q89 0 165 127l103 -71q-111 -238 -276 -238q-61 0 -214 72q-135 63 -188 63q-89 0 -167 -126z" />
    <glyph glyph-name="Adieresis" unicode="&#xc4;" 
d="M702 1315l402 -1315h-200l-80 270h-424l-77 -270h-193l396 1315h176zM772 446l-130 454l-7 26q-12 42 -22 86l-3 11l-3 -14q-6 -25 -11 -43l-9 -36l-8 -28l-128 -456h321zM1078 1430v-259h-192v259h192zM335 1430v-259h-192v259h192z" />
    <glyph glyph-name="Aring" unicode="&#xc5;" 
d="M1090 0h-203l-64 250h-427l-59 -250h-193l232 887q-149 98 -149 251q0 138 99 212.5t281 74.5q183 0 282.5 -76t99.5 -216q0 -157 -139 -246zM779 426l-102 406q-34 -6 -65 -6t-73 6l-99 -406h339zM608 1271q-205 0 -205 -143q0 -72 54.5 -112t152.5 -40q203 0 203 148
q0 147 -205 147z" />
    <glyph glyph-name="Ccedilla" unicode="&#xc7;" 
d="M778 -3l-78 -313h-212l109 307q-176 37 -275.5 210t-99.5 443q0 324 122.5 505.5t340.5 181.5q146 0 241 -87.5t95 -221.5h-186q-11 60 -56.5 96.5t-111.5 36.5q-114 0 -183 -134.5t-69 -355.5q0 -231 68 -368t184 -137q65 0 112 40.5t56 104.5h196v-15q0 -98 -71 -180.5
t-182 -112.5z" />
    <glyph glyph-name="Eacute" unicode="&#xc9;" 
d="M435 797v-195h520v-176h-520v-250h619v-176h-811v973h789v-176h-597zM720 1420h249l-238 -312h-187z" />
    <glyph glyph-name="Ntilde" unicode="&#xd1;" 
d="M1023 973v-973h-236l-399 703v-703h-178v973h235l400 -708v708h178zM1000 1422v-17q0 -115 -63.5 -189.5t-162.5 -74.5q-96 0 -182 64l-34 25q-50 37 -81 37q-61 0 -67 -108h-178v15q0 121 63 194.5t166 73.5q90 0 186 -72q72 -55 103 -55q61 0 69 107h181z" />
    <glyph glyph-name="Odieresis" unicode="&#xd6;" 
d="M615 1150q197 0 328.5 -166.5t131.5 -415.5q0 -238 -136 -411t-324 -173t-324 173t-136 411q0 249 131.5 415.5t328.5 166.5zM615 974q-119 0 -185.5 -106t-66.5 -296q0 -186 69 -299t183 -113t183 113t69 299q0 190 -66.5 296t-185.5 106zM1077 1430v-263h-192v263h192z
M333 1430v-263h-192v263h192z" />
    <glyph glyph-name="Udieresis" unicode="&#xdc;" 
d="M1082 1086v-569q0 -235 -54 -332q-112 -201 -407 -201q-299 0 -412 205q-59 107 -59 330v567h192v-562q0 -195 63.5 -279.5t209.5 -84.5q153 0 222 101q33 48 43 98t10 164v563h192zM1082 1430v-154h-287v154h287zM436 1430v-154h-286v154h286z" />
    <glyph glyph-name="aacute" unicode="&#xe1;" 
d="M803 609v83q0 152 -186 152q-176 0 -215 -113h-192q13 257 408 257q196 0 281 -84t85 -277v-627h-181v97q-122 -114 -287 -114q-159 0 -254.5 81t-95.5 215q0 151 116.5 240.5t313.5 89.5h207zM803 462h-235q-98 0 -157.5 -47t-59.5 -124q0 -71 47.5 -117.5t121.5 -46.5
q119 0 201 78t82 192v65zM668 1420h249l-238 -312h-187z" />
    <glyph glyph-name="agrave" unicode="&#xe0;" 
d="M803 609v83q0 152 -186 152q-176 0 -215 -113h-192q13 257 408 257q196 0 281 -84t85 -277v-627h-181v97q-122 -114 -287 -114q-159 0 -254.5 81t-95.5 215q0 151 116.5 240.5t313.5 89.5h207zM803 462h-235q-98 0 -157.5 -47t-59.5 -124q0 -71 47.5 -117.5t121.5 -46.5
q119 0 201 78t82 192v65zM265 1420h249l176 -312h-187z" />
    <glyph glyph-name="acircumflex" unicode="&#xe2;" 
d="M803 609v83q0 152 -186 152q-176 0 -215 -113h-192q13 257 408 257q196 0 281 -84t85 -277v-627h-181v97q-122 -114 -287 -114q-159 0 -254.5 81t-95.5 215q0 151 116.5 240.5t313.5 89.5h207zM803 462h-235q-98 0 -157.5 -47t-59.5 -124q0 -71 47.5 -117.5t121.5 -46.5
q119 0 201 78t82 192v65zM737 1420l254 -309h-225l-178 187l-171 -187h-227l249 309h298z" />
    <glyph glyph-name="adieresis" unicode="&#xe4;" 
d="M803 609v83q0 152 -186 152q-176 0 -215 -113h-192q13 257 408 257q196 0 281 -84t85 -277v-627h-181v97q-122 -114 -287 -114q-159 0 -254.5 81t-95.5 215q0 151 116.5 240.5t313.5 89.5h207zM803 462h-235q-98 0 -157.5 -47t-59.5 -124q0 -71 47.5 -117.5t121.5 -46.5
q119 0 201 78t82 192v65zM862 1420v-293h-193v293h193zM512 1420v-293h-193v293h193z" />
    <glyph glyph-name="atilde" unicode="&#xe3;" 
d="M803 609v83q0 152 -186 152q-176 0 -215 -113h-192q13 257 408 257q196 0 281 -84t85 -277v-627h-181v97q-122 -114 -287 -114q-159 0 -254.5 81t-95.5 215q0 151 116.5 240.5t313.5 89.5h207zM803 462h-235q-98 0 -157.5 -47t-59.5 -124q0 -71 47.5 -117.5t121.5 -46.5
q119 0 201 78t82 192v65zM976 1405q0 -129 -61.5 -205.5t-165.5 -76.5q-97 0 -184 64l-33 25q-50 37 -82 37q-61 0 -67 -107h-180v15q0 121 63 194t168 73q90 0 187 -72q72 -54 104 -54q61 0 69 107h182z" />
    <glyph glyph-name="aring" unicode="&#xe5;" 
d="M832 0v126q-95 -85 -161 -114t-161 -29q-148 0 -236.5 82t-88.5 219q0 197 176 284q106 51 365 51h106v24q0 189 -214 189q-162 0 -211 -113h-175q17 128 131 188q-66 48 -91.5 95.5t-25.5 122.5q0 137 98 216t268 79q166 0 265.5 -80.5t99.5 -213.5q0 -139 -113 -219
q92 -35 120.5 -99t28.5 -237v-571h-181zM832 457h-60q-214 0 -286 -23q-116 -36 -116 -140q0 -69 48 -110.5t127 -41.5q125 0 200.5 83t86.5 232zM608 1281q-95 0 -149.5 -43t-54.5 -117q0 -151 205 -151q211 0 211 153q0 73 -57.5 115.5t-154.5 42.5z" />
    <glyph glyph-name="ccedilla" unicode="&#xe7;" 
d="M778 -3l-78 -313h-212l107 302q-165 23 -260.5 157t-95.5 344q0 224 119 362.5t311 138.5q151 0 246.5 -72.5t116.5 -202.5h-196q-42 116 -165 116q-247 0 -247 -343q0 -166 61.5 -255t175.5 -89q68 0 118 43t57 107h196q-5 -106 -73 -185.5t-181 -109.5z" />
    <glyph glyph-name="eacute" unicode="&#xe9;" 
d="M1050 446h-672l-1 -34q0 -119 81 -194.5t207 -75.5q107 0 151 68h199q-10 -110 -104 -168.5t-260 -58.5q-223 0 -346.5 132.5t-123.5 371.5q0 201 106 346q113 153 341 153q209 0 317 -123t108 -361q0 -16 -3 -56zM858 604q0 100 -63.5 161.5t-167.5 61.5
q-103 0 -171 -60.5t-79 -162.5h481zM694 1420h249l-238 -312h-187z" />
    <glyph glyph-name="egrave" unicode="&#xe8;" 
d="M1050 446h-672l-1 -34q0 -119 81 -194.5t207 -75.5q107 0 151 68h199q-10 -110 -104 -168.5t-260 -58.5q-223 0 -346.5 132.5t-123.5 371.5q0 201 106 346q113 153 341 153q209 0 317 -123t108 -361q0 -16 -3 -56zM858 604q0 100 -63.5 161.5t-167.5 61.5
q-103 0 -171 -60.5t-79 -162.5h481zM291 1420h249l176 -312h-187z" />
    <glyph glyph-name="ecircumflex" unicode="&#xea;" 
d="M1050 446h-672l-1 -34q0 -119 81 -194.5t207 -75.5q107 0 151 68h199q-10 -110 -104 -168.5t-260 -58.5q-223 0 -346.5 132.5t-123.5 371.5q0 201 106 346q113 153 341 153q209 0 317 -123t108 -361q0 -16 -3 -56zM858 604q0 100 -63.5 161.5t-167.5 61.5
q-103 0 -171 -60.5t-79 -162.5h481zM763 1420l254 -309h-225l-178 187l-171 -187h-227l249 309h298z" />
    <glyph glyph-name="edieresis" unicode="&#xeb;" 
d="M1050 446h-672l-1 -34q0 -119 81 -194.5t207 -75.5q107 0 151 68h199q-10 -110 -104 -168.5t-260 -58.5q-223 0 -346.5 132.5t-123.5 371.5q0 201 106 346q113 153 341 153q209 0 317 -123t108 -361q0 -16 -3 -56zM858 604q0 100 -63.5 161.5t-167.5 61.5
q-103 0 -171 -60.5t-79 -162.5h481zM888 1420v-293h-193v293h193zM538 1420v-293h-193v293h193z" />
    <glyph glyph-name="iacute" unicode="&#xed;" 
d="M282 971h504v-971h-192v788h-312v183zM760 1420h249l-238 -312h-187z" />
    <glyph glyph-name="igrave" unicode="&#xec;" 
d="M282 971h504v-971h-192v788h-312v183zM357 1420h249l176 -312h-187z" />
    <glyph glyph-name="icircumflex" unicode="&#xee;" 
d="M763 1420l254 -309h-225l-178 187l-171 -187h-227l249 309h298zM281 971h504v-971h-192v788h-312v183z" />
    <glyph glyph-name="idieresis" unicode="&#xef;" 
d="M282 971h504v-971h-192v788h-312v183zM888 1420v-293h-193v293h193zM538 1420v-293h-193v293h193z" />
    <glyph glyph-name="ntilde" unicode="&#xf1;" 
d="M186 971h181v-111q127 128 317 128q165 0 263.5 -97t98.5 -259v-632h-181v646q0 86 -53 134.5t-149 48.5q-133 0 -214.5 -83t-81.5 -218v-528h-181v971zM1003 1405q0 -129 -61.5 -205.5t-165.5 -76.5q-97 0 -184 64l-33 25q-50 37 -82 37q-61 0 -67 -107h-180v15
q0 121 63 194t168 73q90 0 187 -72q72 -54 104 -54q61 0 69 107h182z" />
    <glyph glyph-name="oacute" unicode="&#xf3;" 
d="M614 988q233 0 354 -140q55 -65 89.5 -164t34.5 -196q0 -220 -134 -362.5t-341 -142.5q-214 0 -344.5 139t-130.5 367q0 225 129.5 362t342.5 137zM625 847q-138 0 -218 -97t-80 -262q0 -168 78 -266t212 -98q133 0 211.5 96t78.5 259q0 173 -74.5 270.5t-207.5 97.5z
M694 1420h249l-238 -312h-187z" />
    <glyph glyph-name="ograve" unicode="&#xf2;" 
d="M614 988q233 0 354 -140q55 -65 89.5 -164t34.5 -196q0 -220 -134 -362.5t-341 -142.5q-214 0 -344.5 139t-130.5 367q0 225 129.5 362t342.5 137zM625 847q-138 0 -218 -97t-80 -262q0 -168 78 -266t212 -98q133 0 211.5 96t78.5 259q0 173 -74.5 270.5t-207.5 97.5z
M291 1420h249l176 -312h-187z" />
    <glyph glyph-name="ocircumflex" unicode="&#xf4;" 
d="M614 988q233 0 354 -140q55 -65 89.5 -164t34.5 -196q0 -220 -134 -362.5t-341 -142.5q-214 0 -344.5 139t-130.5 367q0 225 129.5 362t342.5 137zM625 847q-138 0 -218 -97t-80 -262q0 -168 78 -266t212 -98q133 0 211.5 96t78.5 259q0 173 -74.5 270.5t-207.5 97.5z
M763 1420l254 -309h-225l-178 187l-171 -187h-227l249 309h298z" />
    <glyph glyph-name="odieresis" unicode="&#xf6;" 
d="M614 988q233 0 354 -140q55 -65 89.5 -164t34.5 -196q0 -220 -134 -362.5t-341 -142.5q-214 0 -344.5 139t-130.5 367q0 225 129.5 362t342.5 137zM625 847q-138 0 -218 -97t-80 -262q0 -168 78 -266t212 -98q133 0 211.5 96t78.5 259q0 173 -74.5 270.5t-207.5 97.5z
M888 1420v-293h-193v293h193zM538 1420v-293h-193v293h193z" />
    <glyph glyph-name="otilde" unicode="&#xf5;" 
d="M614 988q233 0 354 -140q55 -65 89.5 -164t34.5 -196q0 -220 -134 -362.5t-341 -142.5q-214 0 -344.5 139t-130.5 367q0 225 129.5 362t342.5 137zM625 847q-138 0 -218 -97t-80 -262q0 -168 78 -266t212 -98q133 0 211.5 96t78.5 259q0 173 -74.5 270.5t-207.5 97.5z
M1003 1405q0 -129 -61.5 -205.5t-165.5 -76.5q-97 0 -184 64l-33 25q-50 37 -82 37q-61 0 -67 -107h-180v15q0 121 63 194t168 73q90 0 187 -72q72 -54 104 -54q61 0 69 107h182z" />
    <glyph glyph-name="uacute" unicode="&#xfa;" 
d="M1043 971v-971h-181v112q-131 -129 -341 -129q-152 0 -243.5 90.5t-91.5 242.5v655h181v-655q0 -174 193 -174q135 0 223 88q79 79 79 228v513h181zM694 1420h249l-238 -312h-187z" />
    <glyph glyph-name="ugrave" unicode="&#xf9;" 
d="M1043 971v-971h-181v112q-131 -129 -341 -129q-152 0 -243.5 90.5t-91.5 242.5v655h181v-655q0 -174 193 -174q135 0 223 88q79 79 79 228v513h181zM291 1420h249l176 -312h-187z" />
    <glyph glyph-name="ucircumflex" unicode="&#xfb;" 
d="M1043 971v-971h-181v112q-131 -129 -341 -129q-152 0 -243.5 90.5t-91.5 242.5v655h181v-655q0 -174 193 -174q135 0 223 88q79 79 79 228v513h181zM763 1420l254 -309h-225l-178 187l-171 -187h-227l249 309h298z" />
    <glyph glyph-name="udieresis" unicode="&#xfc;" 
d="M1043 971v-971h-181v112q-131 -129 -341 -129q-152 0 -243.5 90.5t-91.5 242.5v655h181v-655q0 -174 193 -174q135 0 223 88q79 79 79 228v513h181zM888 1420v-293h-193v293h193zM538 1420v-293h-193v293h193z" />
    <glyph glyph-name="dagger" unicode="&#x2020;" 
d="M714 1007h357v-148h-357v-859h-196v859h-357v148h357v407h196v-407z" />
    <glyph glyph-name="degree" unicode="&#xb0;" 
d="M617 1328q123 0 209.5 -86.5t86.5 -209.5t-86.5 -209.5t-209.5 -86.5q-122 0 -209 86.5t-87 209.5q0 122 87 209t209 87zM617 1180q-61 0 -104.5 -43.5t-43.5 -104.5t43.5 -104.5t104.5 -43.5t104.5 43.5t43.5 104.5t-43.5 104.5t-104.5 43.5z" />
    <glyph glyph-name="cent" unicode="&#xa2;" 
d="M707 1181q262 -36 300 -271h-196q-27 73 -104 106v-662q94 45 104 135h196q-5 -119 -85 -200t-215 -103v-186h-154v186q-158 28 -249 161t-91 337q0 194 92.5 327.5t247.5 164.5v238h154v-233zM553 356v652q-155 -67 -155 -325q0 -137 36 -213.5t119 -113.5z" />
    <glyph glyph-name="sterling" unicode="&#xa3;" 
d="M626 648l-111 -468h534v-180h-869v180h141l110 468h-210v178h250l62 263q81 341 326 341q109 0 190 -84v-182h-54q-55 84 -132 84q-100 0 -128 -125l-67 -297h221v-178h-263z" />
    <glyph glyph-name="section" unicode="&#xa7;" 
d="M160 324h204q21 -169 263 -169q114 0 178.5 40t64.5 111q0 61 -47 96q-39 28 -197 40q-244 17 -328 58q-139 68 -139 230q0 116 109 200q-68 84 -68 179q0 152 116.5 244t308.5 92q191 0 296.5 -84t105.5 -236h-203q0 144 -202 144q-99 0 -159.5 -37.5t-60.5 -99.5
q0 -68 54.5 -101t184.5 -44q152 -12 225 -32.5t120 -63.5q81 -73 81 -187q0 -101 -83 -185q91 -81 91 -213q0 -149 -119 -235.5t-324 -86.5q-444 0 -472 340zM823 594q54 37 54 92q0 61 -62 91q-41 21 -194 31q-166 11 -214 28q-53 -44 -53 -95q0 -55 50 -81t173 -35l113 -8
q70 -5 133 -23z" />
    <glyph glyph-name="bullet" unicode="&#x2022;" 
d="M616 789q95 0 162.5 -67.5t67.5 -162.5t-67.5 -162.5t-162.5 -67.5t-162.5 67.5t-67.5 162.5t67.5 162.5t162.5 67.5z" />
    <glyph glyph-name="paragraph" unicode="&#xb6;" 
d="M593 544h-9q-194 0 -311 104.5t-117 276.5q0 171 109 279q64 63 132.5 87t184.5 24h466v-176h-66v-1455h-162v1455h-65v-1455h-162v860z" />
    <glyph glyph-name="germandbls" unicode="&#xdf;" 
d="M365 0h-181v1006q0 177 119 287.5t310 110.5q188 0 312 -103.5t124 -260.5q0 -100 -44.5 -168.5t-149.5 -131.5q235 -85 235 -347q0 -169 -103.5 -281t-258.5 -112h-71v161h49q108 0 153.5 53t45.5 179q0 122 -58.5 188.5t-165.5 66.5h-63v177h59q86 0 136.5 56t50.5 150
q0 101 -62 157.5t-173 56.5q-140 0 -202 -71t-62 -232v-942z" />
    <glyph glyph-name="registered" unicode="&#xae;" 
d="M483 587v-324h-138v789h267q124 0 197.5 -62.5t73.5 -168.5q0 -81 -45 -136.5t-124 -71.5l226 -350h-161l-198 324h-98zM483 705h108q153 0 153 114q0 116 -155 116h-106v-230zM620 1342q253 0 433 -200.5t180 -482.5q0 -283 -180 -484t-433 -201q-256 0 -437.5 200.5
t-181.5 484.5q0 283 181 483t438 200zM620 1246q-215 0 -366 -172t-151 -415q0 -244 151.5 -416.5t365.5 -172.5q211 0 361 172.5t150 416.5q0 242 -150 414.5t-361 172.5z" />
    <glyph glyph-name="copyright" unicode="&#xa9;" 
d="M847 866h-133q-15 79 -107 79q-70 0 -112 -79.5t-42 -210.5q0 -129 43 -207t114 -78q91 0 104 86h139q1 -10 1 -13q0 -78 -70 -134t-167 -56q-138 0 -220.5 108t-82.5 289q0 191 81 301.5t221 110.5q105 0 168 -53t63 -143zM620 1342q253 0 433 -200.5t180 -482.5
q0 -283 -180 -484t-433 -201q-256 0 -437.5 200.5t-181.5 484.5q0 283 181 483t438 200zM620 1246q-215 0 -366 -172t-151 -415q0 -244 151.5 -416.5t365.5 -172.5q211 0 361 172.5t150 416.5q0 242 -150 414.5t-361 172.5z" />
    <glyph glyph-name="trademark" unicode="&#x2122;" 
d="M343 1183v-657h-142v657h-174v132h493v-132h-177zM842 1046l92 269h185v-789h-142v480l-86 -222h-98l-86 222v-480h-142v789h184z" />
    <glyph glyph-name="acute" unicode="&#xb4;" 
d="M694 1420h249l-238 -312h-187z" />
    <glyph glyph-name="dieresis" unicode="&#xa8;" 
d="M888 1420v-293h-193v293h193zM538 1420v-293h-193v293h193z" />
    <glyph glyph-name="notequal" unicode="&#x2260;" 
d="M181 591h233l174 249h-407v176h531l116 165l150 -105l-41 -60h116v-176h-240l-174 -249h414v-176h-537l-111 -158l-151 106l37 52h-110v176z" />
    <glyph glyph-name="AE" unicode="&#xc6;" 
d="M1039 1315v-176h-288l27 -360h261v-176h-248l32 -427h231v-176h-399l-23 334h-252l-67 -334h-177l262 1315h641zM621 510l-40 629h-46l-122 -629h208z" />
    <glyph glyph-name="Oslash" unicode="&#xd8;" 
d="M892 1361l-47 -163q230 -111 230 -571q0 -313 -136 -451q-117 -119 -300 -119q-38 0 -118 10l-32 -109h-153l48 157q-226 151 -226 545q0 596 445 596q56 0 106 -10l33 115h150zM795 1013l-228 -788q40 -6 65 -6q250 0 250 419q0 265 -87 375zM664 1087q-22 7 -54 7
q-259 0 -259 -418q0 -138 19 -223.5t65 -153.5z" />
    <glyph glyph-name="infinity" unicode="&#x221e;" 
d="M618 556q-138 -190 -304 -190q-124 0 -202 91.5t-78 238.5q0 142 80 236.5t201 94.5q147 0 302 -186q80 103 148.5 145t156.5 42q120 0 199 -92t79 -233q0 -151 -76 -244.5t-200 -93.5q-78 0 -140.5 39t-165.5 152zM524 698q-114 171 -209 171q-54 0 -88.5 -49
t-34.5 -125q0 -78 32.5 -124.5t87.5 -46.5q94 0 203 160zM710 698q125 -175 216 -175q53 0 84.5 48.5t31.5 130.5q0 76 -33.5 122t-88.5 46q-107 0 -210 -172z" />
    <glyph glyph-name="plusminus" unicode="&#xb1;" 
d="M714 1224v-355h343v-176h-343v-354h-195v354h-343v176h343v355h195zM1057 225v-225h-881v225h881z" />
    <glyph glyph-name="lessequal" unicode="&#x2264;" 
d="M1089 1370v-225l-638 -343l638 -344v-224l-945 534v67zM1089 199v-199h-945v199h945z" />
    <glyph glyph-name="greaterequal" unicode="&#x2265;" 
d="M144 1145v225l945 -535v-67l-945 -534v224l638 344zM1089 199v-199h-945v199h945z" />
    <glyph glyph-name="yen" unicode="&#xa5;" 
d="M1103 1320l-404 -536v-212h343v-178h-343v-394h-167v394h-343v178h343v212l-401 536h215l270 -357l256 357h231z" />
    <glyph glyph-name="mu" unicode="&#xb5;" 
d="M367 12v-328h-181v1287h181v-655q0 -174 193 -174q135 0 223 88q79 79 79 228v513h181v-971h-181v112q-131 -129 -342 -129q-84 0 -153 29z" />
    <glyph glyph-name="partialdiff" unicode="&#x2202;" 
d="M269 1256l24 156l38 -5q327 -49 513 -258q108 -122 169.5 -294t61.5 -355q0 -220 -110 -356q-136 -168 -342 -168q-192 0 -328.5 141.5t-136.5 340.5q0 201 132 341.5t320 140.5q110 0 215 -54q-161 308 -517 364zM629 793q-127 0 -216 -97.5t-89 -235.5
q0 -140 86.5 -238t209.5 -98q124 0 206.5 98.5t82.5 246.5q0 143 -78.5 233.5t-201.5 90.5z" />
    <glyph glyph-name="summation" unicode="&#x2211;" 
d="M1132 1420v-428h-164v268h-705l449 -666l-449 -751h723v264h164v-423h-1113v118l469 792l-469 713v113h1095z" />
    <glyph glyph-name="product" unicode="&#x220f;" 
d="M33 1420h1166v-159h-152v-1418h152v-159h-482v159h166v1418h-534v-1418h164v-159h-480v159h152v1418h-152v159z" />
    <glyph glyph-name="pi" unicode="&#x3c0;" 
d="M809 840h-368v-840h-158v840l-21 -1q-103 0 -164 -16v118q36 10 64 12l100 4q14 1 21 1h853v-118h-169v-840h-158v840z" />
    <glyph glyph-name="integral" unicode="&#x222b;" 
d="M882 1421q93 0 166 -77.5t73 -176.5q0 -107 -87 -107q-70 0 -90 86l-7 31q-6 24 -28 42.5t-47 18.5q-72 0 -111.5 -147t-39.5 -415q0 -432 -37 -627q-32 -169 -118.5 -266.5t-204.5 -97.5q-93 0 -166 77t-73 176q0 107 87 107q70 0 90 -85l7 -31q6 -25 28 -43t47 -18
q75 0 109 131q43 166 43 457l4 160q0 297 38 467q35 158 119.5 248t197.5 90z" />
    <glyph glyph-name="ordfeminine" unicode="&#xaa;" 
d="M715 1181v36q0 79 -99 79q-94 0 -116 -55h-141q9 167 258 167q125 0 179 -53.5t54 -175.5v-390h-135v58q-69 -68 -167 -68q-95 0 -155 53t-60 138q0 97 73.5 154t197.5 57h111zM715 1066h-128q-52 0 -84 -24.5t-32 -64.5q0 -38 25 -62t63 -24q66 0 111 47t45 115v13z
M294 703h595v-157h-595v157z" />
    <glyph glyph-name="ordmasculine" unicode="&#xba;" 
d="M615 1395q136 0 218 -85.5t82 -228.5q0 -138 -84 -227t-215 -89q-133 0 -215 87.5t-82 229.5q0 141 81.5 227t214.5 86zM621 1284q-75 0 -119.5 -54.5t-44.5 -148.5t43 -149.5t117 -55.5t117 54.5t43 146.5q0 207 -156 207zM320 703h594v-157h-594v157z" />
    <glyph glyph-name="Omega" unicode="&#x2126;" 
d="M37 0v158h357v54q-139 42 -217 133q-146 169 -146 415q0 282 168.5 471t421.5 189q250 0 415.5 -188t165.5 -472q0 -246 -142 -414q-77 -92 -212 -133v-55h348v-158h-504v312l31 6q321 68 321 437q0 212 -123 359.5t-301 147.5q-179 0 -305 -148t-126 -359
q0 -182 85.5 -295t244.5 -141l32 -6v-313h-514z" />
    <glyph glyph-name="ae" unicode="&#xe6;" 
d="M1073 443h-371v-132q0 -92 23.5 -130.5t79.5 -38.5q98 0 98 149h170l1 -40q0 -128 -66.5 -198t-187.5 -70q-152 0 -202 117q-58 -117 -209 -117q-249 0 -249 293q0 181 73.5 248.5t271.5 67.5h28v96q0 150 -96 150q-90 0 -100 -117h-173q0 267 265 267q140 0 189 -96
q58 96 195 96q122 0 190 -69q41 -41 55.5 -97t14.5 -176v-203zM903 592v108q0 138 -101 138q-100 0 -100 -139v-107h201zM533 443h-19q-97 0 -133 -32.5t-36 -118.5q0 -150 85 -150q46 0 74.5 40.5t28.5 105.5v67v88z" />
    <glyph glyph-name="oslash" unicode="&#xf8;" 
d="M1054 1132l-135 -246q160 -134 160 -405q0 -225 -127 -361.5t-335 -136.5q-82 0 -175 30l-103 -187h-157l141 258q-170 155 -170 410q0 225 126.5 359.5t336.5 134.5q104 0 186 -26l93 170h159zM831 724l-308 -565q55 -17 99 -17q124 0 198 92.5t74 247.5t-63 242z
M721 818q-55 11 -95 11q-135 0 -211 -89t-76 -246q0 -156 71 -253z" />
    <glyph glyph-name="questiondown" unicode="&#xbf;" 
d="M468 848h193v-89q0 -54 -24.5 -91.5t-118.5 -126.5q-59 -57 -80 -97.5t-21 -100.5q0 -77 48.5 -127.5t123.5 -50.5q192 0 192 224l1 24h196v-34l-21 -173q-28 -94 -130 -154t-234 -60q-165 0 -267 91t-102 238q0 180 136 308q82 79 95 96.5t13 54.5v68zM702 1068h-274
v247h274v-247z" />
    <glyph glyph-name="exclamdown" unicode="&#xa1;" 
d="M849 0h-270l40 885h195zM849 1187h-270v227h270v-227z" />
    <glyph glyph-name="logicalnot" unicode="&#xac;" 
d="M927 0v320h-804v184h988v-504h-184z" />
    <glyph glyph-name="radical" unicode="&#x221a;" 
d="M73 791h260l145 -439l355 1105h327v-184h-204l-426 -1293h-106l-222 627h-129v184z" />
    <glyph glyph-name="florin" unicode="&#x192;" 
d="M1009 708v-158h-300l-44 -504q-15 -173 -113 -267.5t-262 -94.5h-114v160h101q189 0 205 190l45 516h-268v158h282l30 345q16 173 114 267.5t262 94.5h113v-160h-100q-189 0 -206 -189l-31 -358h286z" />
    <glyph glyph-name="approxequal" unicode="&#x2248;" 
d="M260 687l-103 71q109 236 276 236q70 0 218 -72q132 -64 186 -64q88 0 165 129l103 -70q-60 -128 -124 -183.5t-152 -55.5q-61 0 -214 72q-134 64 -188 64q-89 0 -167 -127zM260 321l-103 71q109 237 276 237q70 0 218 -71q132 -63 186 -63q88 0 165 127l103 -71
q-111 -238 -276 -238q-61 0 -214 72q-135 63 -188 63q-89 0 -167 -127z" />
    <glyph glyph-name="Delta" unicode="&#x2206;" 
d="M90 0l519 1052l533 -1052h-1052zM217 79h797l-404 797z" />
    <glyph glyph-name="guillemotleft" unicode="&#xab;" 
d="M550 473l384 383l138 -138l-246 -245l246 -244l-138 -138zM155 473l385 383l138 -138l-247 -245l247 -244l-138 -138z" />
    <glyph glyph-name="guillemotright" unicode="&#xbb;" 
d="M683 473l-385 -382l-138 138l247 244l-247 245l138 138zM1077 473l-384 -382l-138 138l246 244l-246 245l138 138z" />
    <glyph glyph-name="ellipsis" unicode="&#x2026;" 
d="M103 299h206v-299h-206v299zM925 299h206v-299h-206v299zM514 299h206v-299h-206v299z" />
    <glyph glyph-name="Agrave" unicode="&#xc0;" 
d="M1090 0h-203l-64 250h-427l-59 -250h-193l253 973h432zM779 426l-92 371h-156l-91 -371h339zM291 1420h249l176 -312h-187z" />
    <glyph glyph-name="Atilde" unicode="&#xc3;" 
d="M1090 0h-203l-64 250h-427l-59 -250h-193l253 973h432zM779 426l-92 371h-156l-91 -371h339zM1003 1405v-17q0 -115 -64 -190t-163 -75q-97 0 -184 64l-33 25q-51 37 -83 37q-60 0 -67 -107h-179v15q0 121 63 194t168 73q91 0 187 -72q72 -54 104 -54q61 0 69 107h182z
" />
    <glyph glyph-name="Otilde" unicode="&#xd5;" 
d="M616 989q203 0 331 -139.5t128 -362.5q0 -214 -132 -358.5t-327 -144.5q-196 0 -328 144.5t-132 358.5q0 223 128 362.5t332 139.5zM616 813q-119 0 -185.5 -85t-66.5 -236q0 -150 69 -241t183 -91q113 0 182 91t69 241q0 151 -66.5 236t-184.5 85zM1004 1405v-17
q0 -115 -64.5 -190t-162.5 -75t-184 64l-34 25q-50 37 -82 37q-60 0 -67 -107h-180v15q0 121 63.5 194t167.5 73q91 0 187 -72q72 -54 104 -54q62 0 70 107h182z" />
    <glyph glyph-name="OE" unicode="&#x152;" 
d="M1027 1315v-176h-294v-366h217v-176h-217v-421h317v-176h-480q-44 -16 -85 -16q-145 0 -239 187t-94 476q0 298 95.5 491t242.5 193q35 0 76 -16h461zM541 1126q-29 29 -54 29q-69 0 -105.5 -130.5t-36.5 -375.5q0 -489 147 -489q23 0 49 26v940z" />
    <glyph glyph-name="oe" unicode="&#x153;" 
d="M1073 443h-370v-132q0 -92 23.5 -130.5t79.5 -38.5q97 0 97 149h170l1 -40q0 -128 -66.5 -198t-187.5 -70q-151 0 -202 117q-57 -117 -209 -117q-249 0 -249 293v419q0 293 266 293q144 0 192 -96q59 96 195 96q121 0 190 -69q41 -40 55.5 -96.5t14.5 -176.5v-203z
M903 592v108q0 138 -100 138t-100 -139v-107h200zM520 293v394q0 151 -87 151q-88 0 -88 -151v-394q0 -151 88 -151q87 0 87 151z" />
    <glyph glyph-name="endash" unicode="&#x2013;" 
d="M188 607h858v-223h-858v223z" />
    <glyph glyph-name="emdash" unicode="&#x2014;" 
d="M155 607h923v-223h-923v223z" />
    <glyph glyph-name="quotedblleft" unicode="&#x201c;" 
d="M296 1427h156v-554h-231zM818 1427h156v-554h-233z" />
    <glyph glyph-name="quotedblright" unicode="&#x201d;" 
d="M221 1427h231l-75 -553h-156v553zM743 1427h230l-75 -553h-155v553z" />
    <glyph glyph-name="quoteleft" unicode="&#x2018;" 
d="M459 1414h315l-39 -668h-231z" />
    <glyph glyph-name="quoteright" unicode="&#x2019;" 
d="M459 1414h315l-39 -668h-231z" />
    <glyph glyph-name="divide" unicode="&#xf7;" 
d="M1057 828v-225h-881v225h881zM501 1215h231v-226h-231v226zM501 443h231v-231h-231v231z" />
    <glyph glyph-name="lozenge" unicode="&#x25ca;" 
d="M616 1367l512 -709l-512 -709l-512 709zM616 1232l-415 -574l415 -574l415 574z" />
    <glyph glyph-name="ydieresis" unicode="&#xff;" 
d="M638 411l313 560h190l-605 -1111q-103 -190 -279 -190h-75v161h73q56 0 82 46l18 31l186 328l-429 735h230zM888 1420v-293h-193v293h193zM538 1420v-293h-193v293h193z" />
    <glyph glyph-name="Ydieresis" unicode="&#x178;" 
d="M613 578l264 395h214l-381 -567v-406h-192v406l-375 567h215zM888 1420v-293h-193v293h193zM538 1420v-293h-193v293h193z" />
    <glyph glyph-name="fraction" unicode="&#x2215;" 
d="M819 1388h93v-111l-487 -1277h-104v103z" />
    <glyph glyph-name="currency" unicode="&#xa4;" 
d="M408 385l-147 -155l-133 133l152 150q-59 138 -59 208q0 67 59 204l-152 148l133 133l149 -150q137 59 206 59t206 -59l149 150l133 -133l-152 -148q59 -136 59 -204q0 -70 -59 -208l152 -150l-133 -133l-149 154q-137 -58 -206 -58t-208 59zM616 946q-94 0 -160 -66
t-66 -160q0 -93 66 -159t160 -66t160 66t66 159q0 94 -66 160t-160 66z" />
    <glyph glyph-name="guilsinglleft" unicode="&#x2039;" 
d="M353 473l385 383l138 -138l-247 -245l247 -244l-138 -138z" />
    <glyph glyph-name="guilsinglright" unicode="&#x203a;" 
d="M880 473l-385 -382l-138 138l247 244l-247 245l138 138z" />
    <glyph glyph-name="fi" unicode="&#xf001;" 
d="M989 971v-971h-192v788h-367v-788h-181v788h-151v183h151v83q0 172 89.5 266.5t252.5 94.5h398v-243h-274v83h-97q-188 0 -188 -189v-95h559z" />
    <glyph glyph-name="fl" unicode="&#xf002;" 
d="M842 1415v-1061q0 -196 213 -196h88v-158h-141q-179 0 -260 96t-81 307v852h-42q-189 0 -189 -189v-95h89v-158h-89v-813h-181v813h-151v158h151v83q0 172 89.5 266.5t253.5 94.5h250z" />
    <glyph glyph-name="daggerdbl" unicode="&#x2021;" 
d="M714 1007h357v-148h-357v-304h357v-148h-357v-407h-196v407h-357v148h357v304h-357v148h357v407h196v-407z" />
    <glyph glyph-name="periodcentered" unicode="&#x2219;" 
d="M433 623h367v-299h-367v299z" />
    <glyph glyph-name="quotesinglbase" unicode="&#x201a;" 
d="M459 353h315l-39 -669h-231z" />
    <glyph glyph-name="quotedblbase" unicode="&#x201e;" 
d="M221 238h231l-75 -554h-156v554zM743 238h230l-75 -554h-155v554z" />
    <glyph glyph-name="perthousand" unicode="&#x2030;" 
d="M330 1380q89 0 149 -64.5t60 -160.5q0 -104 -60.5 -168t-158.5 -64q-91 0 -151 64.5t-60 162.5q0 102 61.5 166t159.5 64zM404 1113v81q0 76 -81 76t-81 -76v-72q0 -89 82 -89q80 0 80 80zM768 1388h93v-111l-750 -1277h-104v103zM549 461q91 0 150.5 -65t59.5 -165
q0 -99 -62 -163t-157 -64q-92 0 -152 64.5t-60 163.5q0 100 62 164.5t159 64.5zM624 198v76q0 78 -84 78q-79 0 -79 -78v-76q0 -37 22.5 -61t56.5 -24q84 0 84 85zM1016 461q91 0 150.5 -65.5t59.5 -164.5t-62 -163t-157 -64q-92 0 -152 64.5t-60 163.5q0 100 62 164.5
t159 64.5zM1091 198v76q0 78 -84 78q-79 0 -79 -78v-76q0 -37 22.5 -61t56.5 -24q84 0 84 85z" />
    <glyph glyph-name="Acircumflex" unicode="&#xc2;" 
d="M1090 0h-203l-64 250h-427l-59 -250h-193l253 973h432zM779 426l-92 371h-156l-91 -371h339zM764 1420l253 -309h-225l-177 187l-172 -187h-227l250 309h298z" />
    <glyph glyph-name="Ecircumflex" unicode="&#xca;" 
d="M435 797v-195h520v-176h-520v-250h620v-176h-812v973h790v-176h-598zM790 1420l254 -309h-225l-178 187l-171 -187h-227l249 309h298z" />
    <glyph glyph-name="Aacute" unicode="&#xc1;" 
d="M1090 0h-203l-64 250h-427l-59 -250h-193l253 973h432zM779 426l-92 371h-156l-91 -371h339zM694 1420h249l-238 -312h-187z" />
    <glyph glyph-name="Edieresis" unicode="&#xcb;" 
d="M435 797v-195h520v-176h-520v-250h619v-176h-811v973h789v-176h-597zM914 1420v-293h-193v293h193zM564 1420v-293h-193v293h193z" />
    <glyph glyph-name="Egrave" unicode="&#xc8;" 
d="M435 797v-195h520v-176h-520v-250h619v-176h-811v973h789v-176h-597zM317 1420h249l176 -312h-187z" />
    <glyph glyph-name="Iacute" unicode="&#xcd;" 
d="M711 797v-621h241v-176h-671v176h238v621h-199v176h590v-176h-199zM694 1420h249l-238 -312h-187z" />
    <glyph glyph-name="Icircumflex" unicode="&#xce;" 
d="M711 797v-621h241v-176h-671v176h238v621h-199v176h589v-176h-198zM763 1420l254 -309h-225l-178 187l-171 -187h-227l249 309h298z" />
    <glyph glyph-name="Idieresis" unicode="&#xcf;" 
d="M711 797v-621h241v-176h-671v176h238v621h-199v176h590v-176h-199zM888 1420v-293h-193v293h193zM538 1420v-293h-193v293h193z" />
    <glyph glyph-name="Igrave" unicode="&#xcc;" 
d="M711 797v-621h241v-176h-671v176h238v621h-199v176h590v-176h-199zM291 1420h249l176 -312h-187z" />
    <glyph glyph-name="Oacute" unicode="&#xd3;" 
d="M616 989q203 0 331 -139.5t128 -362.5q0 -214 -132 -358.5t-327 -144.5q-196 0 -328 144.5t-132 358.5q0 223 128 362.5t332 139.5zM616 813q-119 0 -185.5 -85t-66.5 -236q0 -150 69 -241t183 -91q113 0 182 91t69 241q0 151 -66.5 236t-184.5 85zM695 1420h248
l-238 -312h-186z" />
    <glyph glyph-name="Ocircumflex" unicode="&#xd4;" 
d="M616 989q203 0 331 -139.5t128 -362.5q0 -214 -132 -358.5t-327 -144.5q-196 0 -328 144.5t-132 358.5q0 223 128 362.5t332 139.5zM616 813q-119 0 -185.5 -85t-66.5 -236q0 -150 69 -241t183 -91q113 0 182 91t69 241q0 151 -66.5 236t-184.5 85zM764 1420l254 -309
h-225l-178 187l-171 -187h-227l249 309h298z" />
    <glyph glyph-name="Ograve" unicode="&#xd2;" 
d="M616 989q203 0 331 -139.5t128 -362.5q0 -214 -132 -358.5t-327 -144.5q-196 0 -328 144.5t-132 358.5q0 223 128 362.5t332 139.5zM616 813q-119 0 -185.5 -85t-66.5 -236q0 -150 69 -241t183 -91q113 0 182 91t69 241q0 151 -66.5 236t-184.5 85zM291 1420h249
l176 -312h-187z" />
    <glyph glyph-name="Uacute" unicode="&#xda;" 
d="M1082 973v-456q0 -235 -54 -332q-112 -201 -407 -201q-299 0 -412 206q-59 107 -59 330v453h192v-449q0 -195 63.5 -279.5t209.5 -84.5q153 0 222 101q33 48 43 98t10 165v449h192zM694 1420h249l-238 -312h-187z" />
    <glyph glyph-name="Ucircumflex" unicode="&#xdb;" 
d="M1082 973v-456q0 -235 -54 -332q-112 -201 -407 -201q-299 0 -412 206q-59 107 -59 330v453h192v-449q0 -195 63.5 -279.5t209.5 -84.5q153 0 222 101q33 48 43 98t10 165v449h192zM763 1420l254 -309h-225l-177 187l-172 -187h-227l249 309h298z" />
    <glyph glyph-name="Ugrave" unicode="&#xd9;" 
d="M1082 973v-456q0 -235 -54 -332q-112 -201 -407 -201q-299 0 -412 206q-59 107 -59 330v453h192v-449q0 -195 63.5 -279.5t209.5 -84.5q153 0 222 101q33 48 43 98t10 165v449h192zM291 1420h248l176 -312h-186z" />
    <glyph glyph-name="dotlessi" unicode="&#x131;" 
d="M282 971h504v-971h-192v788h-312v183z" />
    <glyph glyph-name="circumflex" unicode="&#x2c6;" 
d="M763 1420l254 -309h-225l-178 187l-171 -187h-227l249 309h298z" />
    <glyph glyph-name="tilde" unicode="&#x2dc;" 
d="M1003 1405q0 -129 -61.5 -205.5t-165.5 -76.5q-97 0 -184 64l-33 25q-50 37 -82 37q-61 0 -67 -107h-180v15q0 121 63 194t168 73q90 0 187 -72q72 -54 104 -54q61 0 69 107h182z" />
    <glyph glyph-name="macron" unicode="&#xaf;" 
d="M910 1368v-188h-587v188h587z" />
    <glyph glyph-name="macron" unicode="&#x2c9;" 
d="M910 1368v-188h-587v188h587z" />
    <glyph glyph-name="breve" unicode="&#x2d8;" 
d="M1003 1405l1 -16q0 -277 -387 -277t-387 277v16h182q8 -74 51.5 -101t153.5 -27t153.5 27t50.5 101h182z" />
    <glyph glyph-name="dotaccent" unicode="&#x2d9;" 
d="M713 1420v-293h-193v293h193z" />
    <glyph glyph-name="ring" unicode="&#x2da;" 
d="M608 1425q381 0 381 -301q0 -302 -381 -302q-380 0 -380 302q0 301 380 301zM608 1271q-204 0 -204 -147q0 -148 204 -148q205 0 205 148q0 147 -205 147z" />
    <glyph glyph-name="cedilla" unicode="&#xb8;" 
d="M790 49l-90 -365h-213l130 365h173z" />
    <glyph glyph-name="hungarumlaut" unicode="&#x2dd;" 
d="M530 1420h249l-238 -312h-187zM859 1420h248l-237 -312h-187z" />
    <glyph glyph-name="ogonek" unicode="&#x2db;" 
d="M628 0h177l117 -316h-212z" />
    <glyph glyph-name="caron" unicode="&#x2c7;" 
d="M763 1111h-298l-249 309h227l171 -186l178 186h225z" />
    <glyph glyph-name="Scaron" unicode="&#x160;" 
d="M1019 687h-194q0 61 -51 94t-146 33q-91 0 -143.5 -25.5t-52.5 -70.5q0 -34 29.5 -55.5t103.5 -39.5q268 -65 369 -134.5t101 -187.5q0 -145 -109.5 -231t-293.5 -86q-191 0 -311 86.5t-120 223.5l1 27h189q6 -74 66 -117.5t156 -43.5q103 0 162 30t59 82q0 51 -49 77.5
t-239 77.5q-183 50 -248.5 102.5t-65.5 150.5q0 134 114.5 222t289.5 88q165 0 274 -82.5t109 -206.5v-14zM777 1111h-298l-250 309h227l172 -186l177 186h225z" />
    <glyph glyph-name="scaron" unicode="&#x161;" 
d="M985 727h-189q-11 113 -176 113q-195 0 -195 -121q0 -102 136 -128q266 -52 338 -93q131 -76 131 -227q0 -137 -115 -212.5t-325 -75.5q-184 0 -285 69.5t-101 197.5h190q10 -71 59.5 -100.5t158.5 -29.5q103 0 167.5 39t64.5 101t-35 90t-137 47q-249 47 -341 113
t-92 198q0 280 415 280q159 0 246 -60.5t87 -170.5q0 -9 -2 -30zM763 1111h-298l-249 309h227l171 -186l178 186h225z" />
    <glyph glyph-name="brokenbar" unicode="&#xa6;" 
d="M521 125v408h192v-408h-192zM521 782v408h192v-408h-192z" />
    <glyph glyph-name="Eth" unicode="&#xd0;" 
d="M243 563h-152v188h152v564h140q270 0 454 -178q101 -98 158 -232t57 -274q0 -277 -193 -467q-166 -164 -451 -164h-165v563zM435 563v-386q191 0 307.5 125t116.5 332q0 202 -127 353t-297 151v-387h204v-188h-204z" />
    <glyph glyph-name="eth" unicode="&#xf0;" 
d="M744 1191q192 -225 270.5 -388.5t78.5 -335.5q0 -230 -125 -356.5t-352 -126.5q-214 0 -344.5 129.5t-130.5 342.5q0 191 129 322t317 131q79 0 180 -42q-23 30 -27 36l-86 116q-24 32 -67 82l-191 -111l-81 140l160 93l-13 14q-64 65 -157 155l-24 22h256q43 -43 89 -91
l8 -9l190 110l81 -140zM620 770q-126 0 -207.5 -89t-81.5 -228q0 -146 79.5 -238t205.5 -92t206.5 92t80.5 237q0 136 -81 227t-202 91z" />
    <glyph glyph-name="Yacute" unicode="&#xdd;" 
d="M613 578l264 395h214l-381 -567v-406h-192v406l-375 567h215zM694 1420h249l-238 -312h-187z" />
    <glyph glyph-name="yacute" unicode="&#xfd;" 
d="M638 411l313 560h190l-605 -1111q-103 -190 -279 -190h-75v161h73q56 0 82 46l18 31l186 328l-429 735h230zM694 1420h249l-238 -312h-187z" />
    <glyph glyph-name="Thorn" unicode="&#xde;" 
d="M414 281v-281h-192v1315h192v-263h274q116 0 184.5 -24t132.5 -87q109 -108 109 -280q0 -169 -123 -280q-112 -100 -318 -100h-259zM414 457h264q115 0 179 54.5t64 152.5q0 212 -241 212h-266v-419z" />
    <glyph glyph-name="thorn" unicode="&#xfe;" 
d="M186 1415h181v-537q129 110 278 110q192 0 316.5 -139.5t124.5 -354.5q0 -230 -120.5 -370.5t-317.5 -140.5q-83 0 -160.5 31.5t-120.5 81.5v-418h-181v1737zM634 829q-128 0 -200 -91t-72 -254q0 -160 71.5 -251t197.5 -91q127 0 198.5 89t71.5 246q0 352 -267 352z" />
    <glyph glyph-name="multiply" unicode="&#xd7;" 
d="M995 961l-242 -242l242 -241l-130 -131l-242 242l-242 -242l-130 131l242 241l-242 242l130 130l242 -242l242 242z" />
    <glyph glyph-name="onesuperior" unicode="&#xb9;" 
d="M592 1221l-235 -180v173l232 174h156v-847h-153v680z" />
    <glyph glyph-name="twosuperior" unicode="&#xb2;" 
d="M470 672h418v-131h-565q-7 40 -7 74q0 137 55 217t209 167q99 56 133 89t34 72q0 46 -40.5 79.5t-96.5 33.5q-118 0 -245 -76l-12 -8l-20 -12v153l14 8q105 65 249 65q138 0 221 -65t83 -173q0 -90 -46.5 -143t-206.5 -146q-177 -102 -177 -204z" />
    <glyph glyph-name="threesuperior" unicode="&#xb3;" 
d="M681 1260h-373v128h581v-132l-217 -193q255 -36 255 -252q0 -125 -100.5 -202t-262.5 -77q-119 0 -256 53v143q120 -67 243 -67q105 0 164 41.5t59 116.5q0 59 -52.5 97t-133.5 38h-125v105z" />
    <glyph glyph-name="onehalf" unicode="&#xbd;" 
d="M289 1221l-235 -180v173l232 174h156v-847h-153v680zM820 1388h93v-111l-488 -1277h-104v103zM904 131h286v-131h-435q-4 49 -4 84q0 116 41.5 199t140.5 166q76 64 96 91t20 66q0 51 -27 82t-71 31q-85 0 -185 -83v152q86 74 197 74q108 0 173.5 -65.5t65.5 -172.5
q0 -90 -32 -143t-144 -146q-122 -102 -122 -204z" />
    <glyph glyph-name="onequarter" unicode="&#xbc;" 
d="M289 1221l-235 -180v173l232 174h156v-847h-153v680zM820 1388h93v-111l-488 -1277h-104v103zM1114 310h114v-132h-114v-178h-153v178h-350v140l276 529h160l-279 -537h193v171h153v-171z" />
    <glyph glyph-name="threequarters" unicode="&#xbe;" 
d="M340 1260h-334v128h516v-132l-191 -193q203 -36 203 -252q0 -125 -88 -202t-230 -77q-98 0 -210 53v143l16 -10q82 -57 182 -57q177 0 177 158q0 59 -45.5 97t-115.5 38h-73v105zM820 1388h93v-111l-487 -1277h-104v103zM1114 310h114v-132h-114v-178h-153v178h-350v140
l276 529h160l-279 -537h193v171h153v-171z" />
    <glyph glyph-name="glyph240" 
d="M888 1420v-293h-193v293h193zM538 1420v-293h-193v293h193z" />
    <glyph glyph-name="glyph241" 
d="M281 971h504v-971h-192v788h-312v183z" />
  </font>
</defs>
</svg>
